<?xml version="1.0" encoding="UTF-8"?>
<!-- Created with Inkscape (http://www.inkscape.org/) -->
<svg id="svg3006" width="128" height="128" version="1.1" xmlns="http://www.w3.org/2000/svg" xmlns:cc="http://creativecommons.org/ns#" xmlns:dc="http://purl.org/dc/elements/1.1/" xmlns:rdf="http://www.w3.org/1999/02/22-rdf-syntax-ns#" xmlns:xlink="http://www.w3.org/1999/xlink">
 <defs id="defs3008">
  <linearGradient id="linearGradient2880" x1="16.143" x2="16.143" y1="4" y2="44" gradientTransform="matrix(2.5386 0 0 1.9745 3.0734 -42.388)" gradientUnits="userSpaceOnUse">
   <stop id="stop2225-6-4-7-2" style="stop-color:#fff" offset="0"/>
   <stop id="stop2229-2-5-5-8" style="stop-color:#fff;stop-opacity:0" offset="1"/>
  </linearGradient>
  <linearGradient id="linearGradient2883" x1="16.626" x2="20.055" y1="15.298" y2="24.628" gradientTransform="matrix(2.5687 0 0 2.7869 2.351 -60.634)" gradientUnits="userSpaceOnUse">
   <stop id="stop2687-1-9-0-2" style="stop-color:#fff" offset="0"/>
   <stop id="stop2689-5-4-3-1" style="stop-color:#fff;stop-opacity:0" offset="1"/>
  </linearGradient>
  <linearGradient id="linearGradient2886" x1="16" x2="16" y1="27.045" y2="16" gradientTransform="matrix(2.6286 0 0 2.6364 -2.2857 -63.182)" gradientUnits="userSpaceOnUse" xlink:href="#linearGradient3680-6"/>
  <linearGradient id="linearGradient3680-6">
   <stop id="stop3682-4" style="stop-color:#dcdcdc" offset="0"/>
   <stop id="stop3684-8" style="stop-color:#fff" offset="1"/>
  </linearGradient>
  <linearGradient id="linearGradient2890" x1="20" x2="20" y1="28" y2="26" gradientTransform="matrix(2.625 0 0 2.5 .74999 -57)" gradientUnits="userSpaceOnUse" xlink:href="#linearGradient3680-6"/>
  <linearGradient id="linearGradient2894" x1="12.579" x2="12.213" y1="2.9165" y2="47.279" gradientTransform="matrix(2.5977 0 0 2.4848 1.6531 -52.136)" gradientUnits="userSpaceOnUse">
   <stop id="stop2240-1-6-7-0" style="stop-color:#fff" offset="0"/>
   <stop id="stop2242-7-3-7-2" style="stop-color:#fff;stop-opacity:0" offset="1"/>
  </linearGradient>
  <linearGradient id="linearGradient2897" x1="23.071" x2="23.071" y1="36.047" y2="33.296" gradientTransform="matrix(2.6175 0 0 2.643 1.1955 -47.751)" gradientUnits="userSpaceOnUse">
   <stop id="stop2225-6-4-7" style="stop-color:#fff" offset="0"/>
   <stop id="stop2229-2-5-5" style="stop-color:#fff;stop-opacity:0" offset="1"/>
  </linearGradient>
  <radialGradient id="radialGradient2900" cx="7.4957" cy="8.4498" r="20" gradientTransform="matrix(0 4.6588 -7.9722 -1.9658e-7 131.36 -68.244)" gradientUnits="userSpaceOnUse">
   <stop id="stop3790-0-0" style="stop-color:#505050" offset="0"/>
   <stop id="stop3792-0-2" style="stop-color:#141414" offset="1"/>
  </radialGradient>
  <linearGradient id="linearGradient2902" x1="16.143" x2="16.143" y1="4" y2="44" gradientTransform="matrix(2.5899 0 0 2.0258 1.8426 -43.619)" gradientUnits="userSpaceOnUse">
   <stop id="stop3796-3-0" style="stop-color:#323232" offset="0"/>
   <stop id="stop3798-8-6" offset="1"/>
  </linearGradient>
  <linearGradient id="linearGradient2905" x1="24" x2="24" y1="7.96" y2="43.865" gradientTransform="matrix(2.6445 0 0 2.6758 .53145 -64.57)" gradientUnits="userSpaceOnUse">
   <stop id="stop4324-9-7" style="stop-color:#f0f0f0" offset="0"/>
   <stop id="stop2860-4-4" style="stop-color:#d7d7d8" offset=".085525"/>
   <stop id="stop2862-5-9" style="stop-color:#b2b2b3" offset=".92166"/>
   <stop id="stop4326-1-1" style="stop-color:#979798" offset="1"/>
  </linearGradient>
  <linearGradient id="linearGradient2907" x1="10.014" x2="10.014" y1="44.96" y2="2.8765" gradientTransform="matrix(2.532 0 0 2.4175 3.232 -53.049)" gradientUnits="userSpaceOnUse">
   <stop id="stop4334-7-6" style="stop-color:#595959" offset="0"/>
   <stop id="stop4336-8-0" style="stop-color:#b3b3b3" offset="1"/>
  </linearGradient>
  <radialGradient id="radialGradient2910" cx="605.71" cy="486.65" r="117.14" gradientTransform="matrix(-.11245 0 0 .057647 81.771 24.864)" gradientUnits="userSpaceOnUse" xlink:href="#linearGradient5060-6-6-5"/>
  <linearGradient id="linearGradient5060-6-6-5">
   <stop id="stop5062-3-0-3" offset="0"/>
   <stop id="stop5064-1-4-9" style="stop-opacity:0" offset="1"/>
  </linearGradient>
  <radialGradient id="radialGradient2913" cx="605.71" cy="486.65" r="117.14" gradientTransform="matrix(.11245 0 0 .057647 46.229 24.864)" gradientUnits="userSpaceOnUse" xlink:href="#linearGradient5060-6-6-5"/>
  <linearGradient id="linearGradient3004" x1="302.86" x2="302.86" y1="366.65" y2="609.51" gradientTransform="matrix(.2071 0 0 .057647 -10.852 24.864)" gradientUnits="userSpaceOnUse">
   <stop id="stop5050-5-6-4" style="stop-opacity:0" offset="0"/>
   <stop id="stop5056-9-0-1" offset=".5"/>
   <stop id="stop5052-6-9-5" style="stop-opacity:0" offset="1"/>
  </linearGradient>
 </defs>
 <metadata id="metadata3011">
  <rdf:RDF>
   <cc:Work rdf:about="">
    <dc:format>image/svg+xml</dc:format>
    <dc:type rdf:resource="http://purl.org/dc/dcmitype/StillImage"/>
    <dc:title/>
   </cc:Work>
  </rdf:RDF>
 </metadata>
 <g id="layer1" transform="translate(0,64)">
  <rect id="rect2512-9-5" x="14" y="46" width="100" height="14" style="fill:url(#linearGradient3004);opacity:.40206"/>
  <path id="path2514-7-4" d="m114 46v13.999c5.7911 0.0263 14-3.1365 14-7.0005 0-3.864-6.4624-6.9987-14-6.9987z" style="fill:url(#radialGradient2913);opacity:.40206"/>
  <path id="path2516-8-9" d="m14 46v13.999c-5.7911 0.0263-14-3.1365-14-7.0005 0-3.864 6.4624-6.9987 14-6.9987z" style="fill:url(#radialGradient2910);opacity:.40206"/>
  <rect id="rect2551-5-8" x="4.5011" y="-44.499" width="119" height="98.998" rx="3" ry="3" style="fill-rule:evenodd;fill:url(#linearGradient2905);stroke-linecap:round;stroke-linejoin:round;stroke-width:1.0021;stroke:url(#linearGradient2907)"/>
  <rect id="rect1314-3-3" x="13.5" y="-34.5" width="101" height="79" rx="0" ry="0" style="color:#000000;fill:url(#radialGradient2900);stroke-linecap:round;stroke-linejoin:round;stroke:url(#linearGradient2902)"/>
  <rect id="rect2221-3-8" x="12.501" y="-35.499" width="103" height="80.998" rx="0" ry="0" style="fill:none;opacity:.4;stroke-linecap:round;stroke-linejoin:round;stroke-width:1.0021;stroke:url(#linearGradient2897)"/>
  <rect id="rect2556-8-5" x="5.5019" y="-43.498" width="117" height="96.996" rx="2" ry="2" style="fill:none;opacity:.8;stroke-linecap:round;stroke-linejoin:round;stroke-width:1.0037;stroke:url(#linearGradient2894)"/>
  <path id="path3651-7-2" d="m69 15v-5h-21v5h21z" style="opacity:.4"/>
  <path id="path3651-2" d="m69 13v-5h-21v5h21z" style="fill:url(#linearGradient2890)"/>
  <path id="path3653-3-2" d="m29.257 10-5.2571-5.2727 11.829-9.2273-11.829-9.2273 5.2571-5.2727 17.743 14.5-17.743 14.5z" style="opacity:.4"/>
  <path id="path3653-7" d="m29.257 8-5.2571-5.2727 11.829-9.2273-11.829-9.2273 5.2571-5.2727 17.743 14.5-17.743 14.5z" style="fill:url(#linearGradient2886)"/>
  <path id="path3333-3-0" d="m10.619-44c-3.1037 0-5.6191 2.729-5.6191 6.0963v44.59c0.00805 0.37512 0.15876 0.72986 0.41807 0.9781 0.25933 0.24823 0.6026 0.36729 0.94655 0.32824l115.59-19.857c0.59462-0.10173 1.0352-0.65334 1.0436-1.3063v-24.734c0-3.3673-2.5153-6.0963-5.6191-6.0963h-106.76z" style="fill-rule:evenodd;fill:url(#linearGradient2883);opacity:.2"/>
  <rect id="rect1314-3-3-9" x="14.5" y="-33.5" width="99" height="77" rx="0" ry="0" style="color:#000000;fill:none;opacity:.1;stroke-linecap:round;stroke-linejoin:round;stroke:url(#linearGradient2880)"/>
 </g>
</svg>
